<?xml version="1.0" encoding="utf-8"?>
<!-- Generator: Adobe Illustrator 21.0.2, SVG Export Plug-In . SVG Version: 6.00 Build 0)  -->
<svg version="1.1" id="Layer_1" xmlns="http://www.w3.org/2000/svg" xmlns:xlink="http://www.w3.org/1999/xlink" x="0px" y="0px"
	 viewBox="0 0 352 442" style="enable-background:new 0 0 352 442;" xml:space="preserve">
<style type="text/css">
	.st0{fill:#B0B4BD;}
</style>
<g>
	<path class="st0" d="M350.8,232.3c0-15.6-6.1-28.4-17.5-38.8c-9.9-9-21.5-13.6-35-13.5c-11.4,0.1-11.4,0-11.4-11.6
		c0-19,0.1-38,0-57C286.6,45.6,227.6-6.2,162.4,1.8C107.7,8.5,65.1,56.5,65,111.6c0,18.8,0,37.7,0,56.5c0,3.8,1.2,8.8-0.7,11.1
		c-2,2.5-7.2,0.7-10.9,0.8C24.3,180.1,1,203.4,1,232.3c0,52.3,0,104.7,0,157C1,416.2,24.9,440,51.9,440c41.3,0,82.7,0,124,0
		c40.8,0,81.7,0,122.5,0c29,0,52.4-23.2,52.5-52.2C350.9,335.9,350.9,284.1,350.8,232.3z M82.1,111c0.4-46.7,30.8-83.4,76.7-91.6
		c52.3-9.3,101.1,23.2,109.8,76.1c0.9,5.2,1.2,10.6,1.2,15.9c0.1,21.3,0,42.6,0.1,64c0,3.7-0.8,4.7-4.6,4.7
		c-29.8-0.2-59.6-0.1-89.4-0.1s-59.6-0.1-89.4,0.1c-3.8,0-4.6-0.9-4.6-4.6C82.2,154,81.9,132.5,82.1,111z M333.8,388.7
		c0,20.8-13.8,34.3-34.6,34.3c-41.1,0-82.3,0-123.4,0c-40.5,0-81,0-121.4,0C31,423,18,410,18,386.9c0-51.5,0-103,0-154.4
		c0-21.9,13.3-35.3,35.1-35.3c82.1-0.1,164.3-0.1,246.4,0c20.4,0,34.2,13.7,34.3,34.2C333.9,283.7,333.9,336.2,333.8,388.7z"/>
	<path class="st0" d="M175.7,256.9c-5.2,0.1-8.2,3.8-8.3,10.3c0,11.6,0,23.3,0,34.9c0,17.1,0,34.3,0,51.4c0,5.9,2.9,9.4,7.7,9.8
		c5.5,0.5,9.2-3.3,9.2-9.8c0.1-14.5,0-29,0-43.4l0,0c0-14.3,0-28.6,0-42.9C184.5,260.6,181.2,256.8,175.7,256.9z"/>
</g>
</svg>
