<?xml version="1.0" encoding="utf-8"?>
<!-- Generator: Adobe Illustrator 21.0.2, SVG Export Plug-In . SVG Version: 6.00 Build 0)  -->
<svg version="1.1" id="Layer_1" xmlns="http://www.w3.org/2000/svg" xmlns:xlink="http://www.w3.org/1999/xlink" x="0px" y="0px"
	 viewBox="0 0 404 404" style="enable-background:new 0 0 404 404;" xml:space="preserve">
<style type="text/css">
	.st0{fill:#B0B4BD;}
</style>
<g>
	<path class="st0" d="M93.5,192c13,62.1,70.3,100.4,132.8,88.9c47.1-8.6,85.5-50.7,89.8-98.5c1.7-18.8,0.4-37.6,0.8-56.5
		c0.2-9.2,0.2-18.3-1.2-27.4c-7.6-51-48-89.8-99.5-95.8C159.5-3.9,105.6,35,93.9,90.8c-3.6,17-2.2,34.2-2.7,51.3
		C91.7,158.8,90,175.6,93.5,192z M107.9,106.2c3.3-44.9,39.6-82.2,84.5-87.4c50-5.7,95,26.2,106.1,75.1c3.4,15.1,2,30.5,2.3,45.8
		c0,1,0,2,0,3c-0.5,15.3,1,30.6-1.8,45.8c-7.2,39.8-41.3,72.4-81.6,77.5c-53.7,6.8-100.6-28.4-109.2-82c-1-6.6-1.2-13.3-1-19.9
		C107.6,144.9,106.5,125.5,107.9,106.2z"/>
	<path class="st0" d="M403.6,321c0.1-3.8-0.3-7.6-1.3-11.4c-4-15.8-15.1-25.2-29.2-31.3c-19-8.2-39.4-12-59.1-17.8
		c-4.8-1.4-9.3,2.8-9.3,7.8c0.1,4.5,2.7,6.8,6.9,8c13.9,3.8,27.8,7.7,41.7,11.7c8.5,2.4,16.7,5.6,23.8,11.2
		c6.6,5.3,10.4,12.1,10.5,20.6c0.1,11.7,0.3,23.3,0,35c-0.4,16-11.2,28.5-26.7,30.8c-4.9,0.7-10,0.3-15,0.3c-98.1,0-196.3,0-294.4,0
		c-19,0-32.4-13.4-32.5-32.3c0-10.8,0.2-21.7-0.1-32.5c-0.3-9.9,4-17.3,11.7-22.9c6-4.3,12.7-7.3,19.7-9.3
		c15.3-4.3,30.7-8.6,46.1-12.9c5.6-1.6,8.5-5.5,7.3-10c-1.3-4.9-5.7-7-11.6-5.3c-14.9,4.1-29.8,8.2-44.7,12.4
		c-9.2,2.6-17.9,6.3-25.7,11.9c-12.5,9-19.2,20.9-18.9,36.5c0.2,11,0,22,0,33c0.2,26.9,21,47.6,48,47.6c50.7,0,101.3,0,152,0l0,0
		c51.2,0,102.3,0,153.5,0c24.1,0,44.3-18.1,46.7-42C404.5,347,403.5,334,403.6,321z"/>
</g>
</svg>
