<?xml version="1.0" encoding="utf-8"?>
<!-- Generator: Adobe Illustrator 21.0.2, SVG Export Plug-In . SVG Version: 6.00 Build 0)  -->
<svg version="1.1" id="Layer_1" xmlns="http://www.w3.org/2000/svg" xmlns:xlink="http://www.w3.org/1999/xlink" x="0px" y="0px"
	 viewBox="0 0 362 512" style="enable-background:new 0 0 362 512;" xml:space="preserve">
<style type="text/css">
	.st0{fill:none;}
	.st1{fill:#EF6CA8;}
	.st2{fill:#FFD000;}
	.st3{fill:#00B3E8;}
	.st4{fill:#2D67B0;}
	.st5{fill:#00A84F;}
	.st6{fill:#232075;}
	.st7{fill:#80888E;}
</style>
<title>Arc_Logo</title>
<path class="st0" d="M181.4,332.1L181.4,332.1c47.2-0.2,87.9-44.4,107.2-108.4C269.4,287.7,228.6,331.9,181.4,332.1z"/>
<path class="st0" d="M241.8,250.3c1.5-24.7,0.5-61.3-1.6-99.4l0,0C242.3,189,243.3,225.6,241.8,250.3c-1.9,30.5-16.3,53.2-31.3,66.8
	C225.5,303.5,239.9,280.9,241.8,250.3z"/>
<path class="st0" d="M69.6,209.3c4.4,18.6,11,36.7,19.7,53.7C80.6,246,74,227.9,69.6,209.3z"/>
<path class="st0" d="M119.8,232.5c-0.1-6.4-0.1-13.3,0-20.6C119.6,219.2,119.7,226.1,119.8,232.5z"/>
<path class="st1" d="M94.8,272.9c-1.9-3.2-3.8-6.5-5.5-9.9c-8.7-17-15.3-35.1-19.7-53.7c-4.5-19.1-7.1-38.7-7.8-58.4H7
	c-3.4,11.4-5.2,23.1-5.2,35c0,80.6,80.2,146.1,179,146.2h-0.1C147,331.9,116.5,309.3,94.8,272.9z"/>
<path class="st1" d="M355.1,150.9h-54.8c-0.7,24.7-4.7,49.2-11.7,72.8c-19.3,64-60,108.1-107.2,108.4h-0.1
	c98.8-0.1,178.9-65.5,178.9-146.2C360.3,174,358.6,162.3,355.1,150.9z"/>
<path class="st2" d="M232.6,53.8L232.6,53.8c-2-20.2-4-37.5-5.8-49.5h-91.4c-1.8,12-3.8,29.3-5.8,49.5H232.6L232.6,53.8z"/>
<path class="st3" d="M232.6,53.8c2.9,28.9,5.7,63.6,7.6,97.1h60.2c0.1-2.7,0.1-5.4,0.2-8.2c0-0.8,0-1.6,0-2.4
	c0.1-29.3-4.2-58.5-12.8-86.6L232.6,53.8L232.6,53.8z"/>
<path class="st3" d="M122,150.9c1.9-33.6,4.7-68.3,7.6-97.1H74.5c-8.6,28-13,57.2-12.8,86.6c0,0.8,0,1.6,0,2.4
	c0,2.7,0.1,5.5,0.2,8.2H122z"/>
<polygon class="st3" points="232.6,53.8 232.6,53.8 232.6,53.8 "/>
<path class="st4" d="M240.1,150.9c2.1,38.1,3.1,74.7,1.6,99.4c-1.9,30.5-16.3,53.2-31.3,66.8c-10.8,9.7-21.9,14.9-29,15
	c47.2-0.2,87.9-44.4,107.2-108.4c7-23.7,10.9-48.1,11.7-72.8L240.1,150.9z"/>
<path class="st4" d="M120.4,250.3c-0.3-5.4-0.5-11.4-0.6-17.8s-0.1-13.3,0-20.6c0-1,0-2.1,0-3.1c0.3-17.8,1.1-37.6,2.2-57.9H61.8
	c0.6,19.7,3.2,39.2,7.8,58.4c4.4,18.6,11,36.7,19.7,53.7c1.8,3.4,3.6,6.7,5.5,9.9c21.7,36.3,52.1,59,85.9,59.2
	c-4.3-0.1-10-1.9-16.2-5.5C145.9,315.8,122.8,289.6,120.4,250.3z"/>
<path class="st4" d="M300.3,150.9c-0.7,24.7-4.7,49.1-11.7,72.8C295.6,200.1,299.6,175.6,300.3,150.9L300.3,150.9L300.3,150.9z"/>
<path class="st4" d="M94.8,272.9c21.7,36.3,52.1,59,85.9,59.2l0,0C147,331.9,116.5,309.3,94.8,272.9z"/>
<path class="st4" d="M61.8,150.9L61.8,150.9c0.6,19.7,3.2,39.2,7.8,58.4C65.1,190.1,62.5,170.6,61.8,150.9z"/>
<polygon class="st4" points="122,150.9 122,150.9 61.8,150.9 61.8,150.9 "/>
<polygon class="st4" points="300.3,150.9 240.1,150.9 240.1,150.9 300.3,150.9 "/>
<circle class="st4" cx="300.3" cy="150.9" r="0"/>
<path class="st5" d="M240.1,150.9L240.1,150.9c-1.9-33.6-4.7-68.3-7.6-97.2h-103c-2.9,28.9-5.7,63.6-7.6,97.1L240.1,150.9
	L240.1,150.9z"/>
<polygon class="st5" points="129.6,53.8 232.6,53.8 232.6,53.8 "/>
<path class="st5" d="M232.6,53.8L232.6,53.8c2.9,28.9,5.7,63.6,7.6,97.1l0,0C238.3,117.4,235.5,82.6,232.6,53.8z"/>
<polygon class="st5" points="232.6,53.8 232.6,53.8 232.6,53.8 "/>
<path class="st6" d="M181.4,332.1L181.4,332.1c7.1-0.1,18.2-5.2,29-15c15.1-13.6,29.5-36.2,31.3-66.8c1.5-24.7,0.5-61.3-1.6-99.4
	H122c-1.1,20.2-1.9,40.1-2.2,57.9c0,1,0,2.1,0,3.1c-0.1,7.2-0.1,14.1,0,20.6s0.3,12.4,0.6,17.8c2.4,39.3,25.5,65.5,44.1,76.3
	c6.2,3.6,11.9,5.5,16.2,5.5L181.4,332.1L181.4,332.1z"/>
<path class="st6" d="M120.4,250.3c-0.3-5.4-0.5-11.4-0.6-17.8C119.9,238.9,120.1,244.9,120.4,250.3c2.4,39.3,25.5,65.5,44.1,76.3
	C145.9,315.8,122.8,289.6,120.4,250.3z"/>
<path class="st6" d="M181.4,332.1L181.4,332.1c7.1-0.1,18.2-5.2,29-15C199.6,326.9,188.5,332,181.4,332.1z"/>
<path class="st6" d="M122,150.9c-1.1,20.2-1.9,40.1-2.2,57.9C120.1,191,120.9,171.2,122,150.9L122,150.9z"/>
<circle class="st6" cx="122" cy="150.9" r="0"/>
<polygon class="st6" points="122,150.9 122,150.9 240.1,150.9 240.1,150.9 "/>
<circle class="st6" cx="122" cy="150.9" r="0"/>
<path class="st7" d="M89.3,506.7L87,492c-12.8,10.6-27.4,17.2-43.7,17.2c-22.2,0-36-13.6-36-35.6c0-16.9,7.4-28.3,22-36.4
	c13.3-7.3,33.7-12.1,57.8-16.7c1.5-17.7-4.6-25-21.7-25c-13.6,0-22.5,5.5-29.9,17.2L13.2,399c11.8-19.5,30.4-26.8,54.2-26.8
	c34.2,0,50.1,14.9,50.1,46v64.7l2.3,23.8L89.3,506.7z M86,440c-18.7,3.8-28.6,6.3-37.1,10.9c-6.6,3.8-10,10.4-10,18.4
	c0,10.4,6.4,16.4,16.6,16.4c11,0,22.5-5.3,30.4-14.1L86,440z M189.7,506.7v-79.9c8.4-15.7,19.7-25.8,35.3-25.8
	c1.6,0,3.2,0.1,4.9,0.2v-28.8c-1.4-0.2-2.7-0.3-4.1-0.2c-16.6,0-28.9,9.4-38.3,27v-24h-28.6v131.4L189.7,506.7z M330.9,463
	c-7.4,14.6-16.9,21.7-30.7,21.7c-18.1,0-30.2-13.6-30.2-42.9c0-29.1,11.8-44.5,29.9-44.5c13-0.2,21.5,6.3,27.6,20.7l25-9.9
	c-8.9-25.5-27.9-35.9-53.2-35.9c-36.5,0-60,25.8-60,69.2c0,42.2,22,68.2,58.5,68.2c26.1,0,44.2-10.6,57-34.1L330.9,463z"/>
</svg>
