<svg xmlns="http://www.w3.org/2000/svg" viewBox="0 0 73.25 65"><defs><style>.cls-1{fill:#4596f9;}</style></defs><title>Asset 1</title><g id="Layer_2" data-name="Layer 2"><g id="Layer_1-2" data-name="Layer 1"><polygon class="cls-1" points="48.23 60.81 4.19 60.81 4.19 4.19 48.23 4.19 48.23 11.53 52.42 11.53 52.42 0 0 0 0 65 52.42 65 52.42 55.83 48.23 55.83 48.23 60.81"/><polygon class="cls-1" points="48.86 31.45 54.45 25.86 51.49 22.9 40.83 33.55 51.49 44.2 54.45 41.23 48.86 35.65 64.7 35.65 64.7 31.45 48.86 31.45"/><path class="cls-1" d="M52.28,12.58a21,21,0,1,0,21,21A21,21,0,0,0,52.28,12.58Zm0,37.74A16.78,16.78,0,1,1,69.05,33.55,16.79,16.79,0,0,1,52.28,50.32Z"/></g></g></svg>